<svg xmlns="http://www.w3.org/2000/svg" viewBox="0 0 60.8183 106.1895"><defs><style>.cls-1{fill-rule:evenodd;}</style></defs><title>bug</title><path class="cls-1" d="M46.3364,44.4068H60.8183V30.8911H46.3364V44.4068Zm0,30.8911H60.8183V61.7823H46.3364V75.2979ZM30.8911,13.5132H45.3725V0H30.8911V13.5132Zm0,15.4453H45.3725V15.4453H30.8911V28.9585Zm0,30.8941H45.3725V46.3369H30.8911V59.8526Zm0,30.8906H45.3725V77.2276H30.8911V90.7432Zm0,15.4463H45.3725V92.6739H30.8911v13.5156ZM15.4453,28.9585H29.9272V15.4453H15.4453V28.9585Zm0,15.4483H29.9272V30.8911H15.4453V44.4068Zm0,15.4458H29.9272V46.3369H15.4453V59.8526Zm0,15.4453H29.9272V61.7823H15.4453V75.2979Zm0,15.4453H29.9272V77.2276H15.4453V90.7432ZM0,44.4068H14.479V30.8911H0V44.4068ZM0,59.8526H14.479V46.3369H0V59.8526ZM0,75.2979H14.479V61.7823H0V75.2979Z"/></svg>