<svg xmlns="http://www.w3.org/2000/svg" viewBox="0 0 293.3711 75.2979"><defs><style>.cls-1{fill-rule:evenodd;}</style></defs><title>rogue</title><path class="cls-1" d="M278.8916,13.5132h14.4795V0H278.8916V13.5132Zm0,61.7847h14.4795V61.7823H278.8916V75.2979ZM263.4463,13.5132h14.479V0h-14.479V13.5132Zm0,30.8941h14.479V30.8916h-14.479V44.4073Zm0,30.8906h14.479V61.7823h-14.479V75.2979ZM248,13.5132H262.48V0H248V13.5132Zm0,15.4483H262.48V15.4458H248V28.9615Zm0,15.4458H262.48V30.8916H248V44.4073Zm0,15.4453H262.48V46.337H248V59.8526Zm0,15.4453H262.48V61.7823H248V75.2979Zm-31.11-61.7847H231.372V0H216.8906V13.5132Zm0,15.4483H231.372V15.4458H216.8906V28.9615Zm0,15.4458H231.372V30.8916H216.8906V44.4073Zm0,15.4453H231.372V46.337H216.8906V59.8526Zm0,15.4453H231.372V61.7823H216.8906V75.2979Zm-15.4458,0h14.4819V61.7823H201.4448V75.2979ZM185.999,13.5132h14.4819V0H185.999V13.5132Zm0,15.4483h14.4819V15.4458H185.999V28.9615Zm0,15.4458h14.4819V30.8916H185.999V44.4073Zm0,15.4453h14.4819V46.337H185.999V59.8526Zm0,15.4453h14.4819V61.7823H185.999V75.2979ZM154.8916,13.5132h14.4795V0H154.8916V13.5132Zm0,30.8941h14.4795V30.8916H154.8916V44.4073Zm0,15.4453h14.4795V46.337H154.8916V59.8526Zm0,15.4453h14.4795V61.7823H154.8916V75.2979ZM139.4458,13.5132h14.4795V0H139.4458V13.5132Zm0,61.7847h14.4795V61.7823H139.4458V75.2979ZM124,13.5132h14.4795V0H124V13.5132Zm0,15.4483h14.4795V15.4458H124V28.9615Zm0,15.4458h14.4795V30.8916H124V44.4073Zm0,15.4453h14.4795V46.337H124V59.8526Zm0,15.4453h14.4795V61.7823H124V75.2979ZM92.89,13.5132H107.372V0H92.89V13.5132Zm0,15.4483H107.372V15.4458H92.89V28.9615Zm0,15.4458H107.372V30.8916H92.89V44.4073Zm0,15.4453H107.372V46.337H92.89V59.8526Zm0,15.4453H107.372V61.7823H92.89V75.2979ZM77.4443,13.5132H91.9262V0H77.4443V13.5132Zm0,61.7847H91.9262V61.7823H77.4443V75.2979ZM61.999,13.5132H76.48V0H61.999V13.5132Zm0,15.4483H76.48V15.4458H61.999V28.9615Zm0,15.4458H76.48V30.8916H61.999V44.4073Zm0,15.4453H76.48V46.337H61.999V59.8526Zm0,15.4453H76.48V61.7823H61.999V75.2979ZM30.8911,13.5132h14.48V0h-14.48V13.5132Zm0,15.4483h14.48V15.4458h-14.48V28.9615Zm0,30.8911h14.48V46.337h-14.48V59.8526Zm0,15.4453h14.48V61.7823h-14.48V75.2979ZM15.4458,13.5132h14.479V0H15.4458V13.5132Zm0,30.8941h14.479V30.8916H15.4458V44.4073ZM0,13.5132H14.48V0H0V13.5132ZM0,28.9615H14.48V15.4458H0V28.9615ZM0,44.4073H14.48V30.8916H0V44.4073ZM0,59.8526H14.48V46.337H0V59.8526ZM0,75.2979H14.48V61.7823H0V75.2979Z"/></svg>