<?xml version="1.0"?>
<svg width="200" height="100" xmlns="http://www.w3.org/2000/svg">
 <!-- Created with Method Draw - http://github.com/duopixel/Method-Draw/ -->

 <g>
  <title>background</title>
  <rect fill="#fff" id="canvas_background" height="102" width="202" y="-1" x="-1"/>
  <g display="none" overflow="visible" y="0" x="0" height="100%" width="100%" id="canvasGrid">
   <rect fill="url(#gridpattern)" stroke-width="0" y="0" x="0" height="100%" width="100%"/>
  </g>
 </g>
 <g>
  <title>Layer 1</title>
  <metadata id="svg_27">image/svg+xml</metadata>

  <style type="text/css">.st0{fill:#ECB32D;}
	.st1{fill:#63C1A0;}
	.st2{fill:#E01A59;}
	.st3{fill:#331433;}
	.st4{fill:#D62027;}
	.st5{fill:#89D3DF;}
	.st6{fill:#258B74;}
	.st7{fill:#819C3C;}
	.st8{fill:#2D333A;}</style>
  <g stroke="null" id="svg_49">
   <g stroke="null" transform="matrix(0.42715 0 0 0.42715 -722.957 -344.193)" id="svg_34">
    <g stroke="null" id="svg_35">
     <path stroke="null" id="svg_36" d="m1787.675415,865.744812c-1.900024,-5.699951 -8,-8.799988 -13.700073,-7c-5.699951,1.900024 -8.799927,8 -7,13.700012l28.099976,86.400024c1.900024,5.299988 7.700073,8.299988 13.200073,6.700012c5.799927,-1.700012 9.299927,-7.799988 7.400024,-13.400024c0,-0.200012 -28,-86.400024 -28,-86.400024z" class="st0"/>
     <path stroke="null" id="svg_37" d="m1744.175415,879.844849c-1.900024,-5.700012 -8,-8.799988 -13.700073,-7c-5.699951,1.899963 -8.799927,8 -7,13.700012l28.099976,86.399963c1.900024,5.299988 7.700073,8.299988 13.200073,6.700012c5.799927,-1.700012 9.299927,-7.799988 7.400024,-13.400024c0,-0.200012 -28,-86.399963 -28,-86.399963z" class="st1"/>
     <path stroke="null" id="svg_38" d="m1823.075317,937.244812c5.700073,-1.899963 8.800049,-8 7,-13.699951c-1.899902,-5.700012 -8,-8.799988 -13.699951,-7l-86.5,28.200012c-5.300049,1.899963 -8.300049,7.699951 -6.699951,13.199951c1.699951,5.800049 7.799927,9.299988 13.399902,7.400024c0.200073,0 86.5,-28.100037 86.5,-28.100037z" class="st2"/>
     <path stroke="null" id="svg_39" d="m1747.875366,961.744873c5.599976,-1.800049 12.900024,-4.200012 20.699951,-6.700012c-1.799927,-5.600037 -4.199951,-12.900024 -6.699951,-20.700012l-20.699951,6.700012l6.699951,20.700012z" class="st3"/>
     <path stroke="null" id="svg_40" d="m1791.475342,947.544861c7.800049,-2.500061 15.100098,-4.900024 20.700073,-6.700012c-1.800049,-5.600037 -4.200073,-12.900024 -6.700073,-20.700012l-20.699951,6.700012l6.699951,20.700012z" class="st4"/>
     <path stroke="null" id="svg_41" d="m1808.875366,893.744812c5.699951,-1.899963 8.800049,-8 7,-13.699951c-1.900024,-5.700012 -8,-8.800049 -13.699951,-7l-86.400024,28.099976c-5.300049,1.900024 -8.300049,7.700012 -6.700073,13.200012c1.700073,5.799988 7.800049,9.299988 13.400024,7.400024c0.200073,0 86.400024,-28.000061 86.400024,-28.000061z" class="st5"/>
     <path stroke="null" id="svg_42" d="m1733.775391,918.144836c5.599976,-1.799988 12.900024,-4.200012 20.699951,-6.700012c-2.5,-7.799988 -4.900024,-15.099976 -6.699951,-20.700012l-20.700073,6.700012l6.700073,20.700012z" class="st6"/>
     <path stroke="null" id="svg_43" d="m1777.275391,904.044861c7.799927,-2.5 15.099976,-4.900024 20.699951,-6.700012c-2.5,-7.799988 -4.900024,-15.100037 -6.699951,-20.700012l-20.700073,6.700012l6.700073,20.700012z" class="st7"/>
    </g>
   </g>
   <path stroke="null" id="svg_44" d="m93.187523,35.305866c1.623131,0.726162 1.751305,1.238758 0.469879,3.673508c-1.32415,2.477467 -1.623177,2.648319 -3.246368,2.00761c-2.007584,-0.854305 -4.61322,-1.495041 -6.279083,-1.495041c-2.733749,0 -4.527786,0.982449 -4.527786,2.477463c0,4.912243 15.633682,2.263897 15.633682,12.686375c0,5.253925 -4.527786,8.756554 -11.276756,8.756554c-3.545341,0 -7.945015,-1.196018 -10.977737,-2.733749c-1.495064,-0.768879 -1.623177,-1.196018 -0.299019,-3.716198c1.110558,-2.178467 1.495018,-2.43475 3.118195,-1.751324c2.562897,1.110588 5.851959,2.00761 8.030396,2.00761c2.477516,0 4.143394,-1.025166 4.143394,-2.477463c0,-4.741364 -15.932724,-2.477497 -15.932724,-12.600922c0,-5.382095 4.485107,-8.97015 11.19133,-8.97015c3.246376,-0.042713 7.218857,0.896996 9.952599,2.135727z" class="st8"/>
   <path stroke="null" id="svg_45" d="m105.831131,22.918545l0,38.956059c0,0.598022 -0.640686,1.196018 -1.49501,1.196018l-4.100655,0c-0.896965,0 -1.494965,-0.640709 -1.494965,-1.196018l0,-38.956059c0,-1.922182 0.555252,-2.093039 3.545341,-2.093039c3.417175,-0.042713 3.545288,0.21357 3.545288,2.093039z" class="st8"/>
   <path stroke="null" id="svg_46" d="m134.962769,44.788612l0,16.786995c0,0.897018 -0.640686,1.495014 -1.495026,1.495014l-4.057892,0c-0.939713,0 -1.580452,-0.683426 -1.495033,-1.623158l0.042755,-1.794041c-2.178505,2.43475 -5.339386,3.716194 -8.500336,3.716194c-6.108231,0 -10.208885,-3.545338 -10.208885,-8.799263c0,-5.595669 4.61322,-9.39732 11.57579,-9.39732c2.648315,0 5.040352,0.469883 7.005257,1.281448l0,-1.922157c0,-3.075485 -2.434723,-4.912239 -6.578117,-4.912239c-1.922218,0 -4.314194,0.768875 -6.193665,1.879467c-1.452332,0.811592 -1.794044,0.768879 -3.374481,-1.580471c-1.537758,-2.349297 -1.495026,-2.776463 0,-3.758911c2.861862,-1.836727 6.706223,-3.032745 10.251564,-3.032745c7.987694,0 13.028069,4.31422 13.028069,11.661186zm-18.88002,9.739025c0,2.007587 1.708626,3.331741 4.228767,3.331741c3.075516,0 5.894691,-1.495014 7.517883,-4.01519l0,-2.605606c-1.623192,-0.640736 -3.630768,-0.982449 -5.382126,-0.982449c-3.844307,0 -6.364525,1.794014 -6.364525,4.271503z" class="st8"/>
   <path stroke="null" id="svg_47" d="m162.727539,35.348606c1.495026,0.854282 1.537704,1.324162 -0.085434,3.844341c-1.53775,2.392033 -1.794037,2.520176 -3.4599,1.708611c-1.238739,-0.640739 -3.246323,-1.196045 -4.869507,-1.196045c-5.125824,0 -8.543015,3.374485 -8.543015,8.500298c0,5.296638 3.417191,8.88472 8.543015,8.88472c1.793976,0 4.015167,-0.683449 5.467499,-1.495014c1.49501,-0.854305 1.794037,-0.811596 3.374481,1.495014c1.409607,2.13575 1.409607,2.648319 0.128174,3.545338c-2.306595,1.580448 -5.894684,2.776466 -9.098312,2.776466c-9.482712,0 -15.847244,-6.065521 -15.847244,-15.206524c0,-9.05558 6.364532,-15.078384 15.932678,-15.078384c2.904587,0 6.321808,0.982422 8.457565,2.22118z" class="st8"/>
   <path stroke="null" id="svg_48" d="m193.738586,59.397141c1.196045,1.495014 0.726227,2.050323 -2.263855,3.118198c-3.032791,1.110592 -3.459915,1.025135 -4.527786,-0.34174l-8.50029,-11.319473l-3.801605,3.673512l0,7.346966c0,0.598022 -0.640747,1.196018 -1.495071,1.196018l-4.100601,0c-0.897018,0 -1.495071,-0.640709 -1.495071,-1.196018l0,-38.956059c0,-1.922182 0.555313,-2.093039 3.545395,-2.093039c3.459915,0 3.545349,0.256283 3.545349,2.093039l0,22.126347l11.618454,-11.148613c1.281418,-1.196018 2.007584,-1.110592 4.271515,0.384453c2.520157,1.623158 2.690994,2.09301 1.495026,3.246315l-8.628448,8.457581l10.33699,13.412514z" class="st8"/>
  </g>
 </g>
</svg>