<?xml version="1.0"?>
<svg width="200" height="100" xmlns="http://www.w3.org/2000/svg">
 <!-- Created with Method Draw - http://github.com/duopixel/Method-Draw/ -->

 <g>
  <title>background</title>
  <rect fill="#fff" id="canvas_background" height="102" width="202" y="-1" x="-1"/>
  <g display="none" overflow="visible" y="0" x="0" height="100%" width="100%" id="canvasGrid">
   <rect fill="url(#gridpattern)" stroke-width="0" y="0" x="0" height="100%" width="100%"/>
  </g>
 </g>
 <g>
  <title>Layer 1</title>
  <g stroke="null" id="svg_6">
   <path stroke="null" id="svg_5" d="m116.789162,52.71347c-0.257484,0.389111 -0.421806,0.655975 -0.601089,0.913025c-1.674339,2.398094 -3.553169,4.587608 -6.114365,6.10276c-3.432999,2.029583 -7.153984,2.866741 -11.032402,2.026085c-1.990028,-0.431759 -3.841492,-1.545513 -5.715744,-2.434155c-0.431953,-0.203876 -0.668091,-0.209038 -1.052063,0.017616c-1.607605,0.948174 -3.171181,2.011017 -4.873329,2.748173c-3.021172,1.307915 -6.202316,2.040756 -9.490318,1.170906c-2.060898,-0.545254 -3.843704,-1.706371 -5.454399,-3.103092c-1.14222,-0.990231 -1.215614,-0.989357 -2.374123,-0.036461c-2.083183,1.714207 -4.488068,2.819489 -7.004581,3.73254c-3.121624,1.133644 -6.340977,1.828285 -9.633656,2.154396c-4.017426,0.397766 -7.742657,-0.284523 -10.461323,-3.586967c-2.179207,-2.646152 -2.761993,-5.715733 -1.428833,-8.906765c1.460175,-3.493977 3.148594,-6.893944 4.734097,-10.334732c0.826733,-1.792683 1.658829,-3.583652 2.460709,-5.387012c0.146656,-0.331291 0.205936,-0.717781 0.222664,-1.083458c0.031384,-0.672333 0.168198,-1.408691 -0.609203,-1.813229c-0.794266,-0.411953 -1.731411,-0.337669 -2.313622,0.399029c-0.729889,0.92168 -1.375614,1.931236 -1.918854,2.974754c-1.799564,3.454128 -3.540646,6.939995 -5.296017,10.41674c-1.316803,2.607029 -2.608372,5.225674 -3.937176,7.825951c-1.258987,2.466354 -3.62533,3.406052 -6.18992,2.446972c-0.863811,-0.324326 -1.40563,-0.96151 -1.551188,-1.930798c-0.205917,-1.375164 0.245007,-2.606678 0.732861,-3.837708c1.065393,-2.692829 2.144581,-5.380589 3.209549,-8.07428c0.570267,-1.444286 1.140934,-2.889763 1.676357,-4.347336c0.375076,-1.019135 0.48777,-2.099972 0.050232,-3.101032c-0.338589,-0.771832 -1.00499,-1.32962 -1.939846,-1.246773c-1.020895,0.090519 -1.824076,0.623856 -2.208948,1.571743c-1.354124,3.343277 -2.653025,6.708496 -3.985317,10.060387c-1.593527,4.01202 -3.160576,8.034904 -4.82056,12.019779c-0.614454,1.472584 -1.541271,2.81345 -3.100668,3.443707c-0.789411,0.320084 -1.683145,0.517982 -2.533162,0.529915c-2.652123,0.034752 -4.942606,-0.85128 -6.50693,-3.102203c-1.243881,-1.790096 -1.54813,-3.782333 -0.946938,-5.889919c0.555984,-1.951054 1.112056,-3.902 1.695269,-5.845394c0.552599,-1.841553 1.140059,-3.673256 1.713696,-5.509262c0.534643,-1.70945 1.034502,-3.431824 1.614219,-5.125771c1.140893,-3.334724 2.060908,-6.769463 3.868925,-9.828377c1.23701,-2.093016 3.240899,-3.224592 5.539004,-3.926559c2.402754,-0.732822 4.449553,0.189735 6.500917,1.210478c0.77792,0.386068 1.54554,0.798939 2.343975,1.135303c1.113939,0.467691 2.12957,0.171608 3.029327,-0.561214c0.736351,-0.599457 1.479446,-1.198416 2.158195,-1.861288c1.695698,-1.655422 5.358818,-1.962175 7.148914,-0.035671c0.412292,0.443657 0.898834,0.817898 1.354134,1.219906c0.937073,0.827709 1.324543,0.912144 2.408741,0.300308c2.578358,-1.455812 5.249363,-1.254229 7.874943,-0.320984c1.523197,0.541954 2.434978,1.836008 3.017204,3.368645c0.85638,2.256523 0.497345,4.43539 -0.360828,6.556362c-1.57859,3.901924 -3.297985,7.746124 -4.838314,11.662655c-0.913021,2.323414 -1.684097,4.712494 -2.340187,7.120529c-0.267231,0.981346 -0.268967,2.144947 -0.019691,3.13092c0.377178,1.492451 1.744137,1.981434 3.126701,2.156578c2.105415,0.266884 4.171417,-0.124413 6.188515,-0.682278c1.722744,-0.474525 3.418869,-1.060249 5.101292,-1.668251c0.811768,-0.293453 1.568306,-0.743942 2.34314,-1.137451c0.662872,-0.335159 0.714073,-0.825905 0.364723,-1.442978c-0.713547,-1.259323 -1.46405,-2.502815 -2.092644,-3.805466c-1.329258,-2.753395 -2.422974,-5.594704 -2.131214,-8.734623c0.254906,-2.748257 1.247368,-5.135166 3.783161,-6.581665c3.74366,-2.133762 6.781555,-1.544613 9.533218,1.643368c2.379692,2.757763 3.164467,6.077412 2.14283,9.634079c-0.571564,1.988728 -1.389328,3.911007 -2.169395,5.834209c-0.215874,0.532505 -0.090576,0.873604 0.246292,1.187187c1.575981,1.472141 3.372932,2.615688 5.367714,3.424847c0.752174,0.306416 1.54731,0.534649 2.344475,0.694775c1.714561,0.343597 3.305191,-0.064426 4.733505,-1.033279c0.680191,-0.46088 0.695053,-0.891556 0.223175,-1.534737c-3.285461,-4.480938 -4.58596,-9.468437 -3.598717,-14.949028c0.369919,-2.051884 1.319077,-3.989979 3.521538,-4.580818c1.361382,-0.365612 2.900093,-0.350166 4.315681,-0.169899c2.300598,0.292572 4.384163,1.210804 5.797577,3.191483c1.695702,2.376633 2.1287,4.977669 1.398926,7.81897c-0.523987,2.04076 -1.59449,3.776798 -2.773216,5.463032c-0.466789,0.66851 -0.484787,1.284672 0.15155,1.731758c0.979958,0.688686 1.975853,1.443787 3.08329,1.842541c2.40625,0.865864 4.903091,0.790344 7.327339,0.011116c2.652573,-0.854355 4.516403,-2.613884 5.579353,-5.224812c1.269562,-3.122372 1.285034,-6.392876 1.220688,-9.675194c-0.051102,-2.564701 -0.140671,-5.129135 -0.216743,-7.694668c-0.026978,-0.916061 -0.174507,-0.969234 -1.047813,-0.791565c-2.300652,0.464764 -4.612846,0.87619 -6.921753,1.298359c-0.728172,0.132195 -1.462822,0.221855 -2.190521,0.353123c-1.58622,0.285389 -2.894905,-0.366341 -2.984596,-2.221783c-0.091446,-1.869873 -0.362114,-3.730801 -0.554329,-5.596478c-0.01123,-0.105005 -0.019852,-0.210625 -0.025383,-0.316631c-0.10733,-2.195511 0.423965,-3.389685 3.059799,-3.294027c2.722031,0.100054 5.444023,0.189693 8.162697,0.332529c1.337364,0.069546 1.807678,-0.267311 1.895668,-1.594381c0.067841,-1.030258 0.096603,-2.061308 0.160866,-3.091137c0.096573,-1.544592 0.448769,-1.911528 2.017876,-1.850145c0.938049,0.036915 1.88063,0.200405 2.798111,0.406765c1.291893,0.290491 1.968987,1.200151 2.058632,2.485163c0.072548,1.052946 0.042137,2.11412 0.025414,3.170473c-0.013748,0.747433 0.218361,1.148624 1.056297,1.233212c2.418739,0.246227 4.827995,0.582678 7.241631,0.869251c1.139648,0.135635 1.779205,0.596949 1.93335,1.444283c0.267334,1.471729 -0.050751,2.479599 -1.16156,2.881691c-1.553741,0.562046 -3.160095,0.99028 -4.766502,1.386286c-1.124176,0.277685 -2.288727,0.396526 -3.43129,0.606398c-0.766731,0.140308 -1.18338,0.543152 -1.176491,1.405632c0.028656,4.258934 -0.067894,8.521774 0.055771,12.776646c0.064331,2.232872 0.39949,4.468781 1.350685,6.554489c0.768417,1.689278 2.08062,2.354801 3.905548,2.048779c2.677803,-0.44923 5.132515,-1.389717 7.270683,-3.084106c1.186447,-0.940105 1.966827,-2.090515 2.026016,-3.679329c0.106888,-2.907398 0.250534,-5.813915 0.421234,-8.717049c0.049454,-0.837585 0.144348,-1.706051 0.423553,-2.487354c0.155716,-0.433441 0.724335,-1.006607 1.120331,-1.018234c2.187347,-0.066101 4.389603,-0.087952 6.566635,0.100887c1.369568,0.118366 2.310364,1.399654 2.237915,2.849483c-0.098175,2.029884 -0.360672,4.052559 -0.553833,6.078255c-0.238571,2.499306 -0.458572,5.00037 -0.724228,7.496338c-0.269058,2.526455 1.75174,3.779266 3.751236,3.803734c1.677399,0.020157 2.667648,-0.60582 3.380341,-2.38092c0.738022,-1.837318 1.176636,-3.829094 1.494919,-5.79348c0.450165,-2.788902 0.663284,-5.616112 0.995468,-8.424465c0.135178,-1.146946 0.851227,-2.028698 1.741623,-2.220013c1.029449,-0.220974 2.380035,0.196587 2.71701,1.137524c0.282745,0.786427 0.218338,1.747208 0.119919,2.6096c-0.363739,3.198387 -0.888367,6.380772 -1.187973,9.585514c-0.184555,1.968586 0.919098,3.369999 2.831741,3.951801c0.953079,0.289188 1.94162,0.517891 2.92868,0.632038c1.733444,0.198219 2.960983,-1.067169 3.32309,-3.037464c0.306503,-1.656624 0.347214,-3.362301 0.496155,-5.04718c0.174225,-2.000828 0.199493,-4.027367 0.541397,-5.99931c0.502914,-2.919441 2.388687,-5.567711 5.882706,-6.417381c2.09729,-0.510544 4.211685,-0.571449 6.305679,-0.329487c3.192657,0.36726 6.532303,2.537533 7.553131,6.204895c0.775131,2.788086 0.467087,5.481392 -0.444977,8.163532c-1.056488,3.108208 -2.98764,5.530388 -5.684464,7.374992c-0.248993,0.16996 -0.394409,0.492565 -0.585785,0.744862c0.338516,0.149757 0.680481,0.434162 1.017487,0.428192c3.223175,-0.049305 6.26297,-0.786495 9.046188,-2.474846c0.628036,-0.380196 1.312042,-0.668144 1.975342,-0.983528c0.609436,-0.288757 0.968552,0.053242 0.798996,0.578838c-0.282837,0.880909 -0.623093,1.810349 -1.186432,2.522022c-2.385269,3.015205 -5.638809,4.460754 -9.401886,4.713924c-1.596207,0.107208 -3.216278,-0.106007 -4.824554,-0.194851c-1.213867,-0.067856 -2.425568,-0.17337 -3.639374,-0.255657c-0.616043,-0.040348 -0.971817,0.218334 -1.125946,0.855087c-0.966309,3.9883 -1.477676,8.043842 -1.97879,12.110294c-0.316315,2.560287 -0.793945,5.111954 -1.406509,7.617386c-0.331787,1.359276 -1.39328,2.296417 -2.862915,2.533264c-0.878357,0.141533 -1.528412,-0.238625 -1.823166,-1.05732c-0.248398,-0.690353 -0.480453,-1.415009 -0.539597,-2.138412c-0.289795,-3.570381 -0.171356,-7.132111 0.302811,-10.685341c0.240341,-1.807678 0.401154,-3.625687 0.607605,-5.437271c0.145844,-1.260162 0.335663,-2.516087 0.454163,-3.778812c0.092972,-1.019867 -0.139145,-1.260639 -1.115707,-1.45491c-2.019775,-0.402958 -4.040558,-0.799023 -6.05162,-1.24435c-1.366241,-0.303802 -2.431213,0.18013 -3.357208,1.121586c-1.230408,1.251637 -2.589905,2.339348 -4.203171,3.042583c-1.948425,0.849976 -4.013565,0.671448 -6.017731,0.353935c-2.891174,-0.460365 -5.200439,-1.980518 -6.842102,-4.41988c-0.509903,-0.756817 -0.878815,-1.610706 -1.278336,-2.435932c-0.223526,-0.46204 -0.424728,-0.641785 -0.966507,-0.365498c-1.92157,0.978325 -3.835907,1.982746 -5.819565,2.820755c-2.209305,0.933743 -4.553871,1.26186 -6.901688,0.607143c-2.288727,-0.639362 -4.044083,-2.112762 -5.501617,-3.954384c-0.391251,-0.493534 -0.775665,-0.99041 -1.381569,-1.766571zm65.920631,-9.159061c-0.025299,-0.316654 -0.025299,-0.635468 -0.077774,-0.946957c-0.292969,-1.803894 -2.104187,-2.61132 -3.5634,-1.523575c-0.659836,0.491646 -1.259323,1.137375 -1.709534,1.828293c-1.503372,2.304512 -2.182175,4.944626 -2.860931,7.570122c-0.170853,0.659485 -0.289749,1.356785 -0.276047,2.033794c0.025497,1.261086 0.766953,1.631817 1.823181,0.950428c2.192184,-1.414265 3.815948,-3.37595 5.186722,-5.556568c0.832993,-1.324646 1.515137,-2.722095 1.477783,-4.355537zm-86.020218,1.27216c0.019257,-1.253345 -0.273354,-2.413094 -1.196365,-3.314568c-0.511749,-0.499512 -1.151558,-0.717018 -1.885315,-0.488285c-0.88987,0.275818 -1.370903,0.936207 -1.437836,2.03204c-0.129486,2.122986 0.782265,3.947086 1.720634,5.742729c0.483208,0.924702 0.942299,0.895435 1.566521,0.040833c0.873222,-1.195011 1.213852,-2.553467 1.232361,-4.012749zm-21.64267,-0.405479c-0.232025,-0.767696 -0.385597,-1.571712 -0.716995,-2.294704c-0.423088,-0.920006 -1.51371,-1.334011 -2.478241,-1.081715c-1.020828,0.267803 -1.424507,0.754326 -1.318581,2.011944c0.093102,1.094574 0.344627,2.186165 0.635872,3.249378c0.213638,0.78141 0.542809,1.547241 0.931915,2.259094c0.523575,0.958935 1.070625,0.968399 1.585495,0.039886c0.709618,-1.278221 1.258041,-2.620697 1.360535,-4.183884z" fill="#ED1C40"/>
  </g>
  <metadata id="svg_27">image/svg+xml</metadata>

  <style type="text/css">.st0{fill:#ECB32D;}
	.st1{fill:#63C1A0;}
	.st2{fill:#E01A59;}
	.st3{fill:#331433;}
	.st4{fill:#D62027;}
	.st5{fill:#89D3DF;}
	.st6{fill:#258B74;}
	.st7{fill:#819C3C;}
	.st8{fill:#2D333A;}</style>
 </g>
</svg>