<?xml version="1.0"?>
<svg width="200" height="100" xmlns="http://www.w3.org/2000/svg">
 <!-- Created with Method Draw - http://github.com/duopixel/Method-Draw/ -->

 <g>
  <title>background</title>
  <rect fill="#fff" id="canvas_background" height="102" width="202" y="-1" x="-1"/>
  <g display="none" overflow="visible" y="0" x="0" height="100%" width="100%" id="canvasGrid">
   <rect fill="url(#gridpattern)" stroke-width="0" y="0" x="0" height="100%" width="100%"/>
  </g>
 </g>
 <g>
  <title>Layer 1</title>
  <metadata id="svg_27">image/svg+xml</metadata>

  <g stroke="null" id="svg_29">
   <g stroke="null" id="svg_19" transform="matrix(0.432282 0 0 -0.432282 -521.017 -194.544)">
    <g stroke="null" id="svg_20" transform="translate(0 -575.979) scale(0.1 0.1)">
     <path fill="#283b82" fill-rule="nonzero" d="m12776.197266,706.534912l-327.78125,0c-22.433594,0 -41.507813,-16.300049 -45.007813,-38.449951l-132.570313,-840.519104c-2.636719,-16.578003 10.210938,-31.535004 27.03125,-31.535004l156.488281,0c22.429688,0 41.503906,16.292999 45.003906,38.484009l35.753906,226.699005c3.453125,22.195984 22.574219,38.492981 44.957031,38.492981l103.765625,0c215.917969,0 340.53125,104.484009 373.078125,311.535034c14.664063,90.585999 0.621094,161.757996 -41.796875,211.602966c-46.585938,54.73999 -129.214844,83.690063 -238.921875,83.690063zm37.817383,-306.989014c-17.926758,-117.617065 -107.793945,-117.617065 -194.688477,-117.617065l-49.460938,0l34.699219,219.656006c2.0625,13.278015 13.5625,23.054993 26.984375,23.054993l22.667969,0c59.191406,0 115.03125,0 143.882813,-33.737976c17.208008,-20.132996 22.480469,-50.039001 15.915039,-91.356018" id="svg_26"/>
     <path fill="#283b82" fill-rule="nonzero" d="m13755.994141,403.331848l-156.959961,0c-13.370117,0 -24.919922,-9.778015 -26.990234,-23.054993l-6.939453,-43.901978l-10.980469,15.91394c-33.979492,49.320007 -109.759766,65.804016 -185.389648,65.804016c-173.451172,0 -321.599609,-131.370972 -350.451172,-315.656006c-15,-91.925995 6.328125,-179.828003 58.472656,-241.125c47.832031,-56.362991 116.273438,-79.847992 197.708008,-79.847992c139.759766,0 217.259766,89.860016 217.259766,89.860016l-7,-43.613998c-2.639648,-16.679001 10.210938,-31.632004 26.94043,-31.632004l141.379883,0c22.480469,0 41.459961,16.296997 45.010742,38.483994l84.829102,537.233994c2.69043,16.536011 -10.109375,31.536011 -26.889648,31.536011zm-218.790039,-305.497009c-15.139648,-89.67099 -86.320313,-149.875 -177.089844,-149.875c-45.580078,0 -82.009766,14.621979 -105.401367,42.325012c-23.196289,27.510986 -32.015625,66.667969 -24.632813,110.284973c14.136719,88.906006 86.513672,151.065979 175.893555,151.065979c44.580078,0 80.810547,-14.807983 104.680664,-42.745972c23.919922,-28.22998 33.399414,-67.628967 26.549805,-111.054993" id="svg_25"/>
     <path fill="#283b82" fill-rule="nonzero" d="m14591.963867,403.331848l-157.729492,0c-15.049805,0 -29.19043,-7.47699 -37.720703,-19.989014l-217.549805,-320.448975l-92.209961,307.940979c-5.799805,19.27002 -23.580078,32.497009 -43.709961,32.497009l-155,0c-18.839844,0 -31.919922,-18.403015 -25.929688,-36.137024l173.740234,-509.862976l-163.34082,-230.586395c-12.849609,-18.160095 0.09082,-43.140594 22.290039,-43.140594l157.541016,0c14.949219,0 28.949219,7.289063 37.429688,19.558594l524.619141,757.269409c12.560547,18.120972 -0.329102,42.898987 -22.429688,42.898987" id="svg_24"/>
     <path fill="#469bdb" fill-rule="nonzero" d="m15114.194336,706.534912l-327.830078,0c-22.379883,0 -41.459961,-16.300049 -44.959961,-38.450073l-132.570313,-840.518982c-2.629883,-16.578003 10.209961,-31.535004 26.94043,-31.535004l168.229492,0c15.620117,0 29,11.402008 31.44043,26.932999l37.620117,238.250015c3.449219,22.195984 22.580078,38.492981 44.959961,38.492981l103.719727,0c215.959961,0 340.530273,104.484009 373.120117,311.535034c14.719727,90.585999 0.580078,161.757996 -41.839844,211.602966c-46.540039,54.73999 -129.120117,83.690063 -238.830078,83.690063l0,0zm37.820313,-306.989075c-17.880859,-117.617004 -107.740234,-117.617004 -194.69043,-117.617004l-49.410156,0l34.75,219.656006c2.05957,13.278015 13.459961,23.054993 26.930664,23.054993l22.669922,0c59.149414,0 115.029297,0 143.878906,-33.737976c17.210938,-20.132996 22.430664,-50.039001 15.871094,-91.356018" id="svg_23"/>
     <path fill="#469bdb" fill-rule="nonzero" d="m16093.954102,403.331848l-156.870117,0c-13.469727,0 -24.929688,-9.778015 -26.94043,-23.054993l-6.949219,-43.901978l-11.020508,15.91394c-33.979492,49.320007 -109.709961,65.804016 -185.339844,65.804016c-173.459961,0 -321.549805,-131.370972 -350.410156,-315.656006c-14.950195,-91.925995 6.280273,-179.828003 58.430664,-241.125c47.929688,-56.362991 116.269531,-79.847992 197.699219,-79.847992c139.760742,0 217.260742,89.860016 217.260742,89.860016l-7,-43.613998c-2.629883,-16.679001 10.209961,-31.632004 27.040039,-31.632004l141.339844,0c22.379883,0 41.459961,16.296997 44.959961,38.483994l84.879883,537.233994c2.580078,16.536011 -10.259766,31.536011 -27.080078,31.536011zm-218.799805,-305.497009c-15.049805,-89.67099 -86.320313,-149.875 -177.089844,-149.875c-45.490234,0 -82.010742,14.621979 -105.400391,42.325012c-23.19043,27.510986 -31.919922,66.667969 -24.629883,110.284973c14.230469,88.906006 86.509766,151.065979 175.900391,151.065979c44.569336,0 80.799805,-14.807983 104.669922,-42.745972c24.009766,-28.22998 33.5,-67.628967 26.549805,-111.054993" id="svg_22"/>
     <path fill="#469bdb" fill-rule="nonzero" d="m16279.003906,683.474854l-134.540039,-855.908997c-2.629883,-16.578003 10.209961,-31.535004 26.94043,-31.535004l135.25,0c22.479492,0 41.55957,16.292999 45.009766,38.484009l132.660156,840.470001c2.640625,16.589966 -10.199219,31.589966 -26.929688,31.589966l-151.459961,0c-13.370117,-0.040039 -24.870117,-9.829956 -26.930664,-23.099976" id="svg_21"/>
    </g>
   </g>
  </g>
  <style type="text/css">.st0{fill:#ECB32D;}
	.st1{fill:#63C1A0;}
	.st2{fill:#E01A59;}
	.st3{fill:#331433;}
	.st4{fill:#D62027;}
	.st5{fill:#89D3DF;}
	.st6{fill:#258B74;}
	.st7{fill:#819C3C;}
	.st8{fill:#2D333A;}</style>
 </g>
</svg>