<svg xmlns="http://www.w3.org/2000/svg" viewBox="0 0 463.373 75.2979"><defs><style>.cls-1{fill-rule:evenodd;}</style></defs><title>hack-lab</title><path class="cls-1" d="M448.8916,13.5132V0H463.373V13.5132Zm0,15.4483H463.373V15.4458H448.8916V28.9615Zm0,30.8911H463.373V46.337H448.8916V59.8526Zm0,15.4453H463.373V61.7823H448.8916V75.2979ZM433.4463,13.5132h14.4814V0H433.4463V13.5132Zm0,30.8941h14.4814V30.8916H433.4463V44.4073Zm0,30.8906h14.4814V61.7823H433.4463V75.2979ZM418,13.5132h14.4824V0H418V13.5132Zm0,15.4483h14.4824V15.4458H418V28.9615Zm0,15.4458h14.4824V30.8916H418V44.4073Zm0,15.4453h14.4824V46.337H418V59.8526Zm0,15.4453h14.4824V61.7823H418V75.2979ZM386.8926,13.5132h14.4795V0H386.8926V13.5132Zm0,15.4483h14.4795V15.4458H386.8926V28.9615Zm0,15.4458h14.4795V30.8916H386.8926V44.4073Zm0,15.4453h14.4795V46.337H386.8926V59.8526Zm0,15.4453h14.4795V61.7823H386.8926V75.2979ZM371.4473,13.5132h14.4794V0H371.4473V13.5132Zm0,30.8941h14.4794V30.8916H371.4473V44.4073ZM356.001,13.5132H370.48V0H356.001V13.5132Zm0,15.4483H370.48V15.4458H356.001V28.9615Zm0,15.4458H370.48V30.8916H356.001V44.4073Zm0,15.4453H370.48V46.337H356.001V59.8526Zm0,15.4453H370.48V61.7823H356.001V75.2979Zm-31.1094,0H339.373V61.7823H324.8916V75.2979Zm-15.4453,0h14.4814V61.7823H309.4463V75.2979ZM294,13.5132h14.4814V0H294V13.5132Zm0,15.4483h14.4814V15.4458H294V28.9615Zm0,15.4458h14.4814V30.8916H294V44.4073Zm0,15.4453h14.4814V46.337H294V59.8526Zm0,15.4453h14.4814V61.7823H294V75.2979ZM216.8926,13.5132h14.4795V0H216.8926V13.5132Zm0,15.4483h14.4795V15.4458H216.8926V28.9615Zm0,30.8911h14.4795V46.337H216.8926V59.8526Zm0,15.4453h14.4795V61.7823H216.8926V75.2979ZM201.4473,44.4073h14.4794V30.8916H201.4473V44.4073ZM186.0019,13.5132h14.4795V0H186.0019V13.5132Zm0,15.4483h14.4795V15.4458H186.0019V28.9615Zm0,15.4458h14.4795V30.8916H186.0019V44.4073Zm0,15.4453h14.4795V46.337H186.0019V59.8526Zm0,15.4453h14.4795V61.7823H186.0019V75.2979Zm-31.11-61.7847H169.373V0H154.8916V13.5132Zm0,61.7847H169.373V61.7823H154.8916V75.2979ZM139.4463,13.5132h14.4814V0H139.4463V13.5132Zm0,61.7847h14.4814V61.7823H139.4463V75.2979ZM124,13.5132h14.4814V0H124V13.5132Zm0,15.4483h14.4814V15.4458H124V28.9615Zm0,15.4458h14.4814V30.8916H124V44.4073Zm0,15.4453h14.4814V46.337H124V59.8526Zm0,15.4453h14.4814V61.7823H124V75.2979ZM92.8926,13.5132h14.4795V0H92.8926V13.5132Zm0,15.4483h14.4795V15.4458H92.8926V28.9615Zm0,15.4458h14.4795V30.8916H92.8926V44.4073Zm0,15.4453h14.4795V46.337H92.8926V59.8526Zm0,15.4453h14.4795V61.7823H92.8926V75.2979ZM77.4473,13.5132H91.9267V0H77.4473V13.5132Zm0,30.8941H91.9267V30.8916H77.4473V44.4073ZM62.001,13.5132H76.48V0H62.001V13.5132Zm0,15.4483H76.48V15.4458H62.001V28.9615Zm0,15.4458H76.48V30.8916H62.001V44.4073Zm0,15.4453H76.48V46.337H62.001V59.8526Zm0,15.4453H76.48V61.7823H62.001V75.2979ZM30.8916,13.5132H45.373V0H30.8916V13.5132Zm0,15.4483H45.373V15.4458H30.8916V28.9615Zm0,15.4458H45.373V30.8916H30.8916V44.4073Zm0,15.4453H45.373V46.337H30.8916V59.8526Zm0,15.4453H45.373V61.7823H30.8916V75.2979ZM15.4453,44.4073H29.9277V30.8916H15.4453V44.4073ZM0,13.5132H14.4814V0H0V13.5132ZM0,28.9615H14.4814V15.4458H0V28.9615ZM0,44.4073H14.4814V30.8916H0V44.4073ZM0,59.8526H14.4814V46.337H0V59.8526ZM0,75.2979H14.4814V61.7823H0V75.2979Z"/></svg>